<svg width="24" height="24" viewBox="0 0 24 24" fill="none" xmlns="http://www.w3.org/2000/svg">
<g clip-path="url(#clip0_105_500)">
<path d="M20.3482 4.84144C19.7393 4.27933 18.9965 3.86564 18.1831 3.63568C17.3697 3.40571 16.5099 3.36629 15.677 3.52078C15.1724 3.03547 14.5709 2.65095 13.9078 2.3898C13.2448 2.12864 12.5335 1.99612 11.8158 2.00002C10.405 1.99628 9.05035 2.52526 8.0494 3.47076C6.74613 3.30678 5.42497 3.60443 4.33757 4.30701C3.25018 5.00959 2.47254 6.068 2.15278 7.28063C1.83302 8.49327 1.99348 9.77539 2.6036 10.8828C3.21372 11.9902 4.23087 12.8454 5.46129 13.2857V15.7869V20.049C5.46116 20.3091 5.51597 20.5665 5.62247 20.806C5.72896 21.0454 5.88497 21.2621 6.08124 21.4432C6.2775 21.6242 6.51002 21.7659 6.76498 21.8599C7.01994 21.9538 7.29215 21.9981 7.56545 21.99H16.5291C17.0764 21.9903 17.6023 21.7877 17.9951 21.4253C18.388 21.0629 18.6169 20.5693 18.6333 20.049V13.2857C19.4808 12.9827 20.2336 12.4803 20.8215 11.8255C21.4094 11.1707 21.8131 10.3849 21.9949 9.54143C22.1767 8.69797 22.1307 7.82446 21.8611 7.00252C21.5915 6.18058 21.1072 5.43706 20.4534 4.84144H20.3482ZM7.56545 20.0591V17.2176V16.7974H16.4239V17.2176C16.4182 17.2775 16.4182 17.3378 16.4239 17.3977V20.009L7.56545 20.0591ZM19.759 9.38372C19.5949 9.92933 19.275 10.421 18.8349 10.8043C18.3947 11.1875 17.8516 11.4473 17.2656 11.5548C17.0244 11.6016 16.8081 11.7273 16.6543 11.9101C16.5005 12.0929 16.419 12.3212 16.4239 12.5553V14.3062C16.4239 14.3062 16.4239 14.3062 16.4239 14.3662V14.7864H11.0478V12.9455C11.0478 12.6801 10.937 12.4257 10.7397 12.238C10.5424 12.0504 10.2748 11.945 9.99575 11.945C9.71672 11.945 9.44912 12.0504 9.25181 12.238C9.05451 12.4257 8.94367 12.6801 8.94367 12.9455V14.7864H7.56545V14.3662V12.5353C7.57041 12.3012 7.4889 12.0729 7.33512 11.8901C7.18133 11.7073 6.965 11.5816 6.72378 11.5348C5.93323 11.3844 5.22963 10.9601 4.74956 10.3442C4.26949 9.72824 4.04721 8.96465 4.12587 8.20162C4.20454 7.4386 4.57853 6.73059 5.17524 6.21505C5.77196 5.6995 6.54883 5.4132 7.35503 5.41173C7.632 5.41069 7.90791 5.44433 8.17565 5.51178C8.3679 5.55297 8.56846 5.54199 8.75446 5.48008C8.94047 5.41817 9.10445 5.30782 9.22773 5.1616C9.53638 4.79208 9.93042 4.49516 10.3793 4.29389C10.8281 4.09261 11.3197 3.9924 11.8158 4.00102C12.3207 4.00102 12.8185 4.11319 13.2697 4.32858C13.7209 4.54398 14.1129 4.85664 14.4145 5.24164C14.547 5.41063 14.7323 5.53548 14.9439 5.59836C15.1556 5.66125 15.3826 5.65896 15.5928 5.59182C16.1584 5.3961 16.7702 5.35408 17.3596 5.47046C17.9489 5.58685 18.4925 5.85703 18.9295 6.25073C19.3664 6.64443 19.6794 7.14609 19.8333 7.69946C19.9873 8.25283 19.9761 8.83604 19.8011 9.38372H19.759Z" fill="black"/>
</g>
<defs>
<clipPath id="clip0_105_500">
<rect width="20" height="20" fill="white" transform="translate(2 2)"/>
</clipPath>
</defs>
</svg>
