<svg width="24" height="24" viewBox="0 0 24 24" fill="none" xmlns="http://www.w3.org/2000/svg">
<g clip-path="url(#clip0_105_445)">
<path d="M12.0002 15.81C11.7648 15.81 11.5347 15.8797 11.339 16.0105C11.1433 16.1413 10.9907 16.3271 10.9007 16.5446C10.8106 16.762 10.787 17.0013 10.8329 17.2321C10.8788 17.463 10.9922 17.675 11.1586 17.8414C11.325 18.0079 11.5371 18.1212 11.768 18.1671C11.9988 18.213 12.238 18.1894 12.4555 18.0994C12.6729 18.0093 12.8588 17.8568 12.9895 17.6611C13.1203 17.4654 13.1901 17.2354 13.1901 17C13.1901 16.6844 13.0648 16.3817 12.8416 16.1585C12.6184 15.9353 12.3158 15.81 12.0002 15.81Z" fill="black"/>
<path d="M12 14.91C12.2652 14.91 12.5195 14.8046 12.707 14.6171C12.8946 14.4295 13 14.1752 13 13.91V6.28998C13 6.02476 12.8946 5.77042 12.707 5.58289C12.5195 5.39535 12.2652 5.28998 12 5.28998C11.7348 5.28998 11.4804 5.39535 11.2928 5.58289C11.1053 5.77042 11 6.02476 11 6.28998V13.91C11 14.1752 11.1053 14.4295 11.2928 14.6171C11.4804 14.8046 11.7348 14.91 12 14.91Z" fill="black"/>
<path d="M12 2C10.0222 2 8.08874 2.58649 6.44425 3.6853C4.79976 4.78412 3.51802 6.3459 2.76114 8.17316C2.00427 10.0004 1.80632 12.0111 2.19217 13.9509C2.57803 15.8907 3.53034 17.6725 4.92887 19.071C6.32739 20.4696 8.1093 21.4219 10.0491 21.8078C11.9889 22.1937 13.9996 21.9956 15.8268 21.2388C17.6541 20.4819 19.2159 19.2002 20.3147 17.5557C21.4135 15.9112 22 13.9778 22 12C22 9.34784 20.9464 6.80426 19.0711 4.92889C17.1957 3.05353 14.6522 2 12 2ZM12 20C10.4178 20 8.87105 19.5308 7.55546 18.6517C6.23986 17.7727 5.21442 16.5233 4.60892 15.0615C4.00342 13.5997 3.84504 11.9911 4.15372 10.4393C4.4624 8.88742 5.22436 7.46196 6.34318 6.34314C7.462 5.22432 8.8874 4.46237 10.4392 4.15369C11.9911 3.845 13.5996 4.00345 15.0614 4.60895C16.5232 5.21445 17.7727 6.23983 18.6518 7.55542C19.5308 8.87101 20 10.4177 20 12C20 14.1217 19.1572 16.1566 17.6569 17.6569C16.1566 19.1572 14.1218 20 12 20Z" fill="black"/>
</g>
<defs>
<clipPath id="clip0_105_445">
<rect width="20" height="20" fill="white" transform="translate(2 2)"/>
</clipPath>
</defs>
</svg>
