<svg width="24" height="24" viewBox="0 0 24 24" fill="none" xmlns="http://www.w3.org/2000/svg">
<path d="M15.8202 6.51672C15.0452 6.54737 14.2778 6.68211 13.538 6.91735C13.3594 6.97744 13.1113 7.06758 12.8533 7.17775L12.2183 7.4181L10.7894 7.0275L10.4223 6.91735C9.64086 6.68604 8.83446 6.5515 8.02089 6.51672C4.96466 6.51672 3 9.0305 3 12.9063C3 18.5948 6.21493 21.9899 9.38031 21.9899C10.0655 21.9541 10.7382 21.7911 11.3649 21.5092C11.5549 21.4237 11.7551 21.3631 11.9603 21.329C12.1732 21.3633 12.3802 21.4273 12.5755 21.5193C13.2255 21.8043 13.9216 21.9672 14.6295 22C17.7453 22 20.9603 18.5948 20.9603 12.9063C21 9.73155 19.4123 6.51672 15.8202 6.51672ZM14.7188 19.997C14.271 19.9699 13.8313 19.8649 13.419 19.6865C13.0042 19.4967 12.5619 19.375 12.1091 19.326H11.9107C11.4651 19.3739 11.0298 19.4922 10.6207 19.6765C10.2185 19.8557 9.78903 19.9641 9.35063 19.997C7.25692 19.997 5.00443 17.2829 5.00443 12.9063C5.00443 10.1622 6.13563 8.51973 7.98128 8.51973C8.62725 8.55164 9.26692 8.66264 9.88638 8.85024L10.2734 8.96039C11.0474 9.17071 11.7619 9.37103 12.0595 9.4211C12.1712 9.44054 12.2852 9.44054 12.3969 9.4211C12.8052 9.32924 13.2038 9.19844 13.5876 9.0305C13.7653 8.9525 13.9476 8.8856 14.1334 8.83019C14.6958 8.64719 15.2796 8.5395 15.8699 8.50976C18.8467 8.50976 19.0254 12.1652 19.0254 12.8963C19.0155 17.2829 16.7629 19.997 14.7188 19.997Z" fill="black"/>
<path d="M14.1532 5.37507C14.4343 5.14357 14.6669 4.8578 14.8372 4.53451C15.0076 4.21122 15.1124 3.85689 15.1455 3.49224L15.2547 2.12019L13.8853 2.00997C13.5283 1.98067 13.1691 2.02312 12.8285 2.13486C12.4878 2.2466 12.1725 2.42543 11.9007 2.66097C11.6209 2.8936 11.3892 3.17962 11.2189 3.50269C11.0486 3.82576 10.9431 4.17955 10.9085 4.5438L10.7993 5.91586L12.1587 6.02601C12.5174 6.05723 12.8786 6.01573 13.2212 5.90394C13.5637 5.79214 13.8806 5.61234 14.1532 5.37507Z" fill="black"/>
<path d="M10.4121 12.3455C9.27102 12.3455 9.271 13.7376 9.271 14.2584C9.271 14.7792 9.27102 16.1713 10.4121 16.1713C11.5533 16.1713 11.5533 14.7792 11.5533 14.2584C11.5533 13.7376 11.5533 12.3455 10.4121 12.3455Z" fill="black"/>
<path d="M14.1333 12.3455C12.9922 12.3455 12.9922 13.7376 12.9922 14.2584C12.9922 14.7792 12.9922 16.1713 14.1333 16.1713C15.2745 16.1713 15.2646 14.7792 15.2646 14.2584C15.2646 13.7376 15.2645 12.3455 14.1333 12.3455Z" fill="black"/>
</svg>
